<?xml version="1.0" encoding="UTF-8"?><svg width="147px" height="22px" viewBox="0 0 147 22" version="1.1" xmlns="http://www.w3.org/2000/svg" xmlns:xlink="http://www.w3.org/1999/xlink"><g stroke="none" stroke-width="1" fill="none" fill-rule="evenodd" transform="translate(-240.000000, -60.000000)"><g transform="translate(240.000000, 60.000000)" fill="#FEFEFE"><path d="M24.5888572,0 L21.8949425,12.5711485 L21.766411,12.5711485 L18.7911698,0 L12.8944607,0 L9.91725218,12.5711485 L9.79003225,12.5711485 L7.35154107,0 L0,0 L5.10027302,22 L12.5800177,22 L15.4919768,9.74644666 L15.5877197,9.74644666 L18.3134393,22 L25.7633463,22 L30.9262456,0 L24.5888572,0 Z M93.2482702,16.8877634 L93.2482702,0.000326743996 L90.0641654,0.000326743996 L90.0641654,0.00196046398 L89.2437936,0.000326743996 C87.3768084,0.000326743996 85.8659078,1.51315145 85.8659078,3.38310734 L85.8659078,4.22839405 L85.8659078,11.956543 L85.8659078,22 L101.075574,22 L101.075574,16.8877634 L93.2482702,16.8877634 Z M40.7087365,0 L33.3552281,0 L33.3552281,22 L36.2514487,22 L36.2514487,21.9980395 L37.3308508,21.9901977 C39.1965244,21.9901977 40.7087365,20.4744323 40.7087365,18.6074171 L40.707425,17.6729293 L40.7087365,17.6729293 L40.7087365,0 Z M136.958151,17.4909329 C138.415934,17.4909329 139.429431,16.7302728 139.429431,14.9831727 C139.429431,13.3965038 138.511021,12.7270054 136.82962,12.7270054 L135.024933,12.7270054 L135.024933,17.4909329 L136.958151,17.4909329 Z M136.769288,8.95311224 C138.130673,8.95311224 139.084166,8.3156347 139.084166,6.63224963 C139.084166,5.07727496 138.287075,4.41169744 136.799126,4.41169744 L135.024933,4.41169744 L135.024933,8.95311224 L136.769288,8.95311224 Z M127.800284,0 L138.319863,0 C143.199469,0 145.987487,1.74481294 145.987487,5.58568861 C145.987487,8.22218592 144.752994,9.84120242 142.282698,10.4744323 L142.282698,10.5701683 C145.069405,11.0459075 147,12.476066 147,15.7441595 C147,19.3010946 144.627414,22 138.671357,22 L127.800284,22 L127.800284,0 Z M111.648599,13.7758536 L115.708161,13.7758536 L113.743466,7.30174808 L113.579522,7.30174808 L111.648599,13.7758536 Z M110.286231,0 L118.208951,0 L125.685744,21.9996733 L118.208951,21.9996733 L117.068562,18.3502696 L110.349514,18.3502696 L109.27339,21.9996733 L102.684841,21.9996733 L110.286231,0 Z M66.610123,0 L82.5473695,0 L82.5473695,5.11092959 L73.8960868,5.11092959 L73.8960868,8.3156347 L80.7056316,8.3156347 L80.7056316,13.3327888 L73.8960868,13.3327888 L73.8960868,16.8874367 L82.9605064,16.8874367 L82.9605064,22 L66.610123,22 L66.610123,0 Z M53.5313901,10.2215324 C55.3380442,10.2215324 56.0987406,9.26940042 56.0987406,7.42787126 C56.0987406,5.68207809 55.3380442,4.8243751 53.4674523,4.8243751 L51.6303047,4.8243751 L51.6303047,10.2215324 L53.5313901,10.2215324 Z M44.3715555,0 L54.6409577,0 C60.4386451,0 63.3204387,2.12612318 63.3204387,7.04721451 C63.3204387,10.0310407 62.0561087,11.5562817 59.8691064,12.5711485 L59.8691064,12.6668845 L64.4936163,21.9996733 L56.9525568,21.9996733 L53.3726931,14.4770462 L51.7591641,14.4770462 L51.7591641,21.9996733 L44.3715555,21.9996733 L44.3715555,0 Z"></path></g></g></svg>