<?xml version="1.0" standalone="no"?>
<!DOCTYPE svg PUBLIC "-//W3C//DTD SVG 20010904//EN"
 "http://www.w3.org/TR/2001/REC-SVG-20010904/DTD/svg10.dtd">
<svg version="1.0" xmlns="http://www.w3.org/2000/svg"
 width="400.000000pt" height="400.000000pt" viewBox="0 0 400.000000 400.000000"
 preserveAspectRatio="xMidYMid meet">
<metadata>
Created by potrace 1.11, written by Peter Selinger 2001-2013
</metadata>
<g transform="translate(0.000000,400.000000) scale(0.100000,-0.100000)"
fill="#000000" stroke="none">
<path d="M1756 3951 c-17 -7 -16 -8 7 -24 15 -9 31 -17 36 -17 6 0 15 -17 20
-37 13 -53 5 -135 -20 -200 -6 -16 -10 -28 -9 -28 3 0 -12 -41 -21 -57 -22
-43 -34 -63 -40 -68 -3 -3 -8 -10 -10 -16 -2 -6 -53 -91 -112 -190 -60 -98
-113 -186 -117 -194 -5 -8 -29 -49 -53 -90 -24 -41 -62 -106 -83 -145 -21 -38
-44 -79 -51 -90 -7 -11 -17 -30 -22 -42 -5 -11 -14 -24 -19 -27 -10 -6 -195
79 -200 92 -1 4 61 113 138 241 77 128 140 235 140 236 0 2 15 30 34 62 18 32
45 78 58 103 35 63 56 99 133 230 88 150 89 153 62 178 -49 45 -101 49 -214
16 -66 -19 -84 -30 -60 -40 24 -9 22 -15 -22 -65 -130 -147 -373 -477 -531
-721 l-82 -127 -47 6 c-25 3 -64 7 -86 8 -22 2 -42 3 -44 4 -2 1 4 10 14 21
10 11 14 20 9 20 -5 0 -4 4 1 8 13 9 75 111 75 123 0 5 5 9 10 9 6 0 10 5 10
10 0 33 224 334 343 462 32 34 33 38 18 51 -30 27 -46 24 -129 -20 -287 -150
-532 -441 -674 -798 -30 -76 -59 -155 -63 -175 -1 -3 -7 -25 -14 -50 -7 -25
-15 -52 -16 -60 -2 -8 -8 -35 -14 -60 -10 -43 -16 -79 -25 -137 -19 -121 -29
-310 -18 -317 5 -3 10 -35 11 -70 1 -36 3 -73 5 -83 2 -10 7 -49 11 -87 l7
-68 29 35 c30 36 76 58 116 55 17 -2 20 -6 12 -19 -4 -9 -10 -43 -13 -75 -2
-33 -4 -65 -5 -72 -1 -10 -8 -9 -30 3 -34 17 -74 8 -85 -20 -12 -33 -5 -154
14 -228 21 -83 61 -181 56 -137 -4 30 10 50 35 50 21 0 36 -23 44 -69 6 -33
30 -112 45 -146 73 -169 143 -275 262 -396 70 -72 138 -128 138 -114 0 4 -8
19 -19 33 -20 30 -68 122 -100 193 -37 84 -88 279 -63 243 7 -9 86 -77 178
-151 30 -24 44 -45 58 -90 59 -185 165 -335 326 -460 36 -28 83 -61 105 -74
71 -40 190 -98 203 -99 6 0 12 -5 12 -11 0 -5 4 -8 8 -5 5 3 31 -3 58 -13 94
-35 102 -36 59 -4 -98 72 -220 219 -282 338 -58 113 -58 113 54 56 54 -27 133
-65 176 -85 51 -23 77 -41 77 -52 0 -24 82 -144 129 -186 125 -116 306 -181
479 -172 93 5 267 48 204 50 -41 2 -142 16 -209 30 -118 24 -153 44 -200 111
-30 42 -29 45 12 27 19 -8 35 -11 35 -8 0 4 6 1 14 -5 7 -6 25 -12 40 -13 14
-1 26 -5 26 -8 0 -3 14 -7 31 -8 18 -1 37 -6 43 -9 6 -4 17 -8 26 -8 8 -1 35
-6 60 -10 123 -23 292 -32 380 -21 14 2 54 7 90 11 36 4 97 17 137 30 40 12
75 20 78 17 3 -3 5 0 5 6 0 7 6 12 14 12 19 0 112 50 183 98 111 76 255 253
258 319 0 12 -2 23 -5 23 -3 0 -51 -24 -108 -54 -56 -29 -102 -52 -102 -50 0
1 -17 -4 -37 -13 -59 -24 -174 -56 -245 -67 -21 -3 -54 -9 -74 -12 -46 -7
-216 -8 -269 -1 -22 3 -67 8 -100 12 -110 11 -257 46 -282 67 -7 6 -13 8 -13
5 0 -6 -38 8 -100 35 -14 6 -34 14 -45 19 -11 4 -50 21 -87 38 l-67 29 4 44
c15 151 27 239 40 274 2 8 51 -7 137 -43 341 -140 652 -214 908 -216 63 -1
205 9 245 17 123 24 237 70 332 133 57 37 193 167 193 183 0 5 6 15 14 22 25
26 104 201 125 278 24 91 29 121 37 225 l6 80 -59 -95 c-73 -119 -201 -250
-300 -309 -162 -96 -301 -134 -498 -135 -198 -1 -317 20 -536 94 -64 22 -122
40 -130 40 -8 0 -26 6 -41 14 -14 8 -43 19 -65 26 -21 7 -61 24 -90 36 -76 35
-107 47 -115 46 -3 -1 -11 5 -18 13 -9 11 -3 32 25 99 21 47 36 88 35 92 -1 4
2 10 7 13 4 3 16 23 25 43 l18 38 52 -21 c29 -12 71 -27 93 -35 22 -8 49 -18
60 -23 113 -51 395 -128 535 -147 19 -3 53 -7 75 -10 54 -7 335 -11 335 -4 0
3 13 6 28 7 46 3 81 11 147 33 230 76 382 261 423 512 11 67 8 341 -4 361 -9
16 -11 13 -12 -16 -9 -232 -151 -421 -358 -476 -90 -24 -125 -27 -234 -26
-122 2 -183 8 -295 31 -112 22 -344 88 -400 113 -11 5 -65 26 -120 47 -148 56
-141 44 -91 150 23 49 51 107 61 129 10 22 43 92 74 155 30 63 56 117 56 120
0 3 36 77 79 165 151 310 195 449 200 630 5 176 -61 302 -209 401 -95 64 -186
97 -295 109 l-55 6 37 -26 c20 -14 40 -25 43 -25 15 0 56 -60 75 -109 21 -54
29 -168 17 -226 -4 -16 -9 -46 -12 -65 -8 -50 -55 -203 -67 -217 -6 -7 -8 -13
-5 -13 11 0 -175 -400 -223 -480 -44 -74 -137 -245 -179 -330 -29 -58 -54
-107 -56 -108 -2 -2 -71 38 -153 88 l-150 92 65 127 c108 210 133 261 132 267
0 4 3 10 8 13 4 3 23 38 42 76 18 39 71 137 118 218 132 234 175 356 176 504
0 80 -25 132 -84 177 -78 58 -105 66 -221 65 -57 0 -111 -4 -122 -8z m-1290
-1473 c2 -3 -18 -56 -45 -119 l-49 -114 -86 0 c-96 0 -97 1 -63 77 9 18 27 61
42 95 22 51 32 62 54 65 36 4 141 1 147 -4z m424 -113 c25 -9 70 -28 102 -42
l56 -26 -18 -32 c-10 -18 -16 -36 -13 -39 4 -3 1 -6 -5 -6 -7 0 -11 -3 -10 -7
1 -8 -7 -30 -40 -106 -10 -23 -25 -57 -32 -74 -7 -18 -14 -33 -15 -33 -4 0
-175 106 -199 123 -13 9 -17 18 -10 28 4 8 9 19 10 24 3 15 85 188 97 203 6 7
15 11 21 9 6 -3 31 -12 56 -22z m673 -342 c62 -37 129 -75 150 -85 27 -14 37
-24 33 -35 -84 -217 -110 -272 -125 -264 -9 5 -82 40 -163 80 l-146 71 35 88
c19 48 41 101 48 117 7 17 19 45 26 63 8 17 18 32 22 32 5 0 59 -30 120 -67z
m-947 -344 c30 -17 78 -43 107 -59 55 -29 58 -37 44 -105 -9 -46 -27 -149 -27
-157 0 -16 -19 -7 -115 52 -104 63 -114 72 -109 99 1 9 10 58 20 109 9 50 19
92 22 92 2 0 29 -14 58 -31z m669 -338 c44 -21 112 -53 150 -71 95 -45 94 -44
84 -88 -10 -47 -24 -195 -22 -244 2 -43 4 -44 -112 20 -44 24 -105 58 -135 75
-98 53 -108 60 -105 71 2 6 6 37 9 69 7 76 26 188 32 199 8 12 12 11 99 -31z"/>
</g>
</svg>
